<?xml version="1.0" encoding="UTF-8"?>
<svg width="1200pt" height="1200pt" version="1.1" viewBox="0 0 1200 1200" xmlns="http://www.w3.org/2000/svg">
 <path d="m507.75 573.38c7.0977 7.043 11.094 16.625 11.094 26.625s-3.9961 19.582-11.094 26.625l-218.62 218.62c-9.4453 9.5117-23.246 13.262-36.207 9.8398-12.961-3.4258-23.109-13.504-26.625-26.438-3.5156-12.938 0.13672-26.766 9.582-36.277l192.38-192.38-192.38-192.38c-6.9844-7.0273-10.906-16.531-10.906-26.438s3.9219-19.41 10.906-26.438c7.043-7.0977 16.625-11.094 26.625-11.094s19.582 3.9961 26.625 11.094zm429.75 208.12h-325.12c-13.398 0-25.777 7.1484-32.477 18.75-6.6992 11.602-6.6992 25.898 0 37.5 6.6992 11.602 19.078 18.75 32.477 18.75h325.12c13.398 0 25.777-7.1484 32.477-18.75 6.6992-11.602 6.6992-25.898 0-37.5-6.6992-11.602-19.078-18.75-32.477-18.75z"/>
</svg>
